<svg xmlns="http://www.w3.org/2000/svg" xmlns:xlink="http://www.w3.org/1999/xlink" version="1.1" style="" xml:space="preserve" width="511.999" height="511.999"><rect id="backgroundrect" width="100%" height="100%" x="0" y="0" fill="none" stroke="none"/>


















<g class="currentLayer" style=""><title>Layer 1</title><g id="svg_1" class="">
	<g id="svg_2">
		<path d="M499.11169935321806,122.31768582153319 L263.2226993532181,21.1266858215332 c-5.066,-2.171 -10.789,-2.171 -15.849,0 L11.484699353218078,122.31768582153319 c-7.398,3.17 -12.183,10.448 -12.176,18.496 c0.013000000000000003,8.048 4.825,15.313 12.223,18.469 L247.42069935321808,259.8026858215332 c2.52,1.072 5.2,1.608 7.881,1.608 c2.681,0 5.368,-0.536 7.8740000000000006,-1.608 l235.889,-100.521 c7.405,-3.15 12.217,-10.421 12.223,-18.469 C511.2956993532181,132.7716858215332 506.51069935321806,125.4866858215332 499.11169935321806,122.31768582153319 zM255.30169935321805,219.4606858215332 L70.55069935321808,140.7326858215332 l184.751,-79.257 l184.751,79.257 L255.30169935321805,219.4606858215332 z" id="svg_3"/>
	</g>
</g><g id="svg_4" class="">
	<g id="svg_5">
		<path d="M510.3659998807907,363.2783132247925 c-4.376,-10.206 -16.217,-14.931000000000001 -26.397,-10.548 l-227.968,97.793 L28.03299988079071,352.7303132247925 c-10.22,-4.396 -22.021,0.3490000000000003 -26.397,10.548 c-4.383,10.2 0.3420000000000003,22.021 10.548,26.397 l235.889,101.198 c2.533,1.086 5.234,1.6280000000000001 7.928,1.6280000000000001 s5.3950000000000005,-0.543 7.928,-1.6280000000000001 l235.889,-101.198 C510.0179998807907,385.2983132247925 514.7419998807907,373.47731322479245 510.3659998807907,363.2783132247925 z" id="svg_6"/>
	</g>
</g><g id="svg_7" class="">
	<g id="svg_8">
		<path d="M511.08530064678195,249.51060129356384 c-4.363,-10.206 -16.17,-14.958 -26.377,-10.608 l-228.008,97.163 L28.69930064678192,238.90260129356383 c-10.22,-4.356 -22.027,0.402 -26.377,10.608 c-4.356,10.22 0.3950000000000004,22.028 10.608,26.377 L248.81930064678193,376.40760129356386 c2.52,1.072 5.2,1.608 7.881,1.608 c2.681,0 5.368,-0.536 7.881,-1.608 l235.889,-100.521 C510.6833006467819,271.53760129356385 515.4343006467819,259.72960129356386 511.08530064678195,249.51060129356384 z" id="svg_9"/>
	</g>
</g><g id="svg_10">
</g><g id="svg_11">
</g><g id="svg_12">
</g><g id="svg_13">
</g><g id="svg_14">
</g><g id="svg_15">
</g><g id="svg_16">
</g><g id="svg_17">
</g><g id="svg_18">
</g><g id="svg_19">
</g><g id="svg_20">
</g><g id="svg_21">
</g><g id="svg_22">
</g><g id="svg_23">
</g><g id="svg_24">
</g></g></svg>