<svg xmlns="http://www.w3.org/2000/svg" xmlns:xlink="http://www.w3.org/1999/xlink" version="1.1" style="" xml:space="preserve" width="456.17647055523605" height="479.4705883342914"><rect id="backgroundrect" width="100%" height="100%" x="0" y="0" fill="none" stroke="none" class="" style=""/>
















<g class="currentLayer" style=""><title>Layer 1</title><g id="svg_1" class="" stroke-width="5" stroke="#000000" stroke-opacity="1">
	<g id="svg_2" stroke-width="5" stroke="#000000" stroke-opacity="1">
		<path d="M146.63529410362244,198.18622604142578 c-5.3,5.273965282430258 -5.3,13.73221149010143 0,19.00617677253169 l71.6,71.24828570226536 c2.6,2.58722825175824 6.1,3.9803511565511385 9.5,3.9803511565511385 s6.9,-1.29361412587912 9.5,-3.9803511565511385 l71.6,-71.24828570226536 c5.3,-5.273965282430258 5.3,-13.73221149010143 0,-19.00617677253169 s-13.8,-5.273965282430258 -19.1,0 L241.23529410362244,246.44798381460834 V15.786634292469866 C241.23529410362244,8.323475873936482 235.23529410362244,2.352949139109776 227.73529410362244,2.352949139109776 S214.23529410362244,8.323475873936482 214.23529410362244,15.786634292469866 v230.6613495221385 l-48.5,-48.26175777318255 C160.43529410362243,192.91226075899553 151.83529410362243,192.91226075899553 146.63529410362244,198.18622604142578 z" id="svg_3" stroke-width="5" stroke="#000000" stroke-opacity="1"/>
		<path d="M448.4352941036224,308.24293552006475 l-47,-169.16492415342339 c-1.1,-3.8808423776373595 -3.8,-6.965614523964492 -7.4,-8.657263765498724 l-1.3,-0.597052673482672 c-1.8,-0.7960702313102278 -3.7,-1.1941053469653413 -5.6,-1.1941053469653413 h-84.7 c-7.5,0 -13.5,5.9705267348267075 -13.5,13.433685153360091 s6,13.433685153360091 13.5,13.433685153360091 h75.6 l39.7,143.09362407801345 h-105 c-7.5,0 -13.5,5.9705267348267075 -13.5,13.433685153360091 v12.140071027480971 c0,17.81207142556634 -14.5,32.24084436806422 -32.4,32.24084436806422 h-82.4 c-17.9,0 -32.4,-14.428772942497876 -32.4,-32.24084436806422 v-12.140071027480971 c0,-7.463158418533385 -6,-13.433685153360091 -13.5,-13.433685153360091 H37.635294103622435 l39.9,-143.39215041475475 h75.6 c7.5,0 13.5,-5.9705267348267075 13.5,-13.433685153360091 s-6,-13.433685153360091 -13.5,-13.433685153360091 H68.33529410362243 c-1.9,0 -3.8,0.39803511565511507 -5.6,1.1941053469653413 l-1.3,0.597052673482672 c-3.6,1.6916492415342341 -6.4,4.776421387861365 -7.4,8.657263765498724 l-47,169.16492415342339 c-0.3000000000000003,1.1941053469653413 -0.5,2.3882106939306826 -0.5,3.582316040896025 v70.55172424986894 c0,53.43621427669903 43.7,96.92155066202022 97.4,96.92155066202022 h247.6 c53.7,0 97.4,-43.48533638532119 97.4,-96.92155066202022 V311.82525156096074 C448.9352941036224,310.5316374350817 448.83529410362246,309.3375320881163 448.4352941036224,308.24293552006475 zM421.9352941036224,382.0784494740884 c0,38.609406218546034 -31.6,70.05418035530005 -70.4,70.05418035530005 H103.93529410362244 c-38.8,0 -70.4,-31.444774136753995 -70.4,-70.05418035530005 v-56.62049520193994 H125.23529410362244 c0.7000000000000006,31.942318031322888 27.1,57.7150917699915 59.4,57.7150917699915 h82.4 c32.3,0 58.7,-25.77277373866862 59.4,-57.7150917699915 h95.7 v56.62049520193994 H421.9352941036224 z" id="svg_4" stroke-width="5" stroke="#000000" stroke-opacity="1"/>
	</g>
</g><g id="svg_5">
</g><g id="svg_6">
</g><g id="svg_7">
</g><g id="svg_8">
</g><g id="svg_9">
</g><g id="svg_10">
</g><g id="svg_11">
</g><g id="svg_12">
</g><g id="svg_13">
</g><g id="svg_14">
</g><g id="svg_15">
</g><g id="svg_16">
</g><g id="svg_17">
</g><g id="svg_18">
</g><g id="svg_19">
</g></g></svg>