<svg xmlns="http://www.w3.org/2000/svg" xmlns:xlink="http://www.w3.org/1999/xlink" version="1.1" style="" xml:space="preserve" width="511.9989929199219" height="511.9989929199219"><rect id="backgroundrect" width="100%" height="100%" x="0" y="0" fill="none" stroke="none"/>


















<g class="currentLayer" style=""><title>Layer 1</title><g id="svg_1" class="">
	<g id="svg_2">
		<path d="M498.41239870643614,185.95404598999022 L262.5233987064362,84.76304598999023 c-5.066,-2.171 -10.789,-2.171 -15.849,0 L10.785398706436157,185.95404598999022 c-7.398,3.17 -12.183,10.448 -12.176,18.496 c0.013000000000000003,8.048 4.825,15.313 12.223,18.469 L246.72139870643616,323.43904598999023 c2.52,1.072 5.2,1.608 7.881,1.608 c2.681,0 5.368,-0.536 7.8740000000000006,-1.608 l235.889,-100.521 c7.405,-3.15 12.217,-10.421 12.223,-18.469 C510.59639870643616,196.40804598999023 505.81139870643614,189.12304598999023 498.41239870643614,185.95404598999022 zM254.60239870643613,283.0970459899902 L69.85139870643616,204.36904598999024 l184.751,-79.257 l184.751,79.257 L254.60239870643613,283.0970459899902 z" id="svg_3"/>
	</g>
</g><g id="svg_4" class="">
	<g id="svg_5">
		<path d="M509.66669935321806,380.76083142089846 c-4.376,-10.206 -16.217,-14.931000000000001 -26.397,-10.548 l-227.968,97.793 L27.33369935321808,370.21283142089845 c-10.22,-4.396 -22.021,0.3490000000000001 -26.397,10.548 c-4.383,10.2 0.3420000000000001,22.021 10.548,26.397 l235.889,101.198 c2.533,1.086 5.234,1.6280000000000001 7.928,1.6280000000000001 s5.3950000000000005,-0.543 7.928,-1.6280000000000001 l235.889,-101.198 C509.31869935321805,402.78083142089844 514.042699353218,390.9598314208984 509.66669935321806,380.76083142089846 z" id="svg_6"/>
	</g>
</g><g id="svg_7" class="">
	<g id="svg_8">
		<path d="M509.6866993532181,290.76934100341794 c-4.363,-10.206 -16.17,-14.958 -26.377,-10.608 l-228.008,97.163 L27.30069935321808,280.161341003418 c-10.22,-4.356 -22.027,0.402 -26.377,10.608 c-4.356,10.22 0.3950000000000001,22.028 10.608,26.377 L247.42069935321808,417.666341003418 c2.52,1.072 5.2,1.608 7.881,1.608 c2.681,0 5.368,-0.536 7.881,-1.608 l235.889,-100.521 C509.28469935321806,312.796341003418 514.0356993532181,300.988341003418 509.6866993532181,290.76934100341794 z" id="svg_9"/>
	</g>
</g><g id="svg_10">
</g><g id="svg_11">
</g><g id="svg_12">
</g><g id="svg_13">
</g><g id="svg_14">
</g><g id="svg_15">
</g><g id="svg_16">
</g><g id="svg_17">
</g><g id="svg_18">
</g><g id="svg_19">
</g><g id="svg_20">
</g><g id="svg_21">
</g><g id="svg_22">
</g><g id="svg_23">
</g><g id="svg_24">
</g><path fill="#000000" stroke-width="12" stroke-dashoffset="" fill-rule="nonzero" marker-start="" marker-mid="" marker-end="" id="svg_30" d="M147.55742,143.82226L149.86229,130.4157L149.65495,126.24495C96.65404,130.905 -98.98107,65.81156 -88.62489,62.13095C-78.26871,58.45034 -66.4556,49.60091 -51.51876,41.44817C-36.58192,33.29543 -20.4487,16.88327 -14.89437,22.46387C-9.34003,28.04448 3.80341,31.23902 18.48525,40.94227C33.16709,50.64552 121.68882,86.11256 147.97442,76.36393L148.30046,72.5386L146.54568,59.89109C144.72399,46.76131 145.23632,44.00423 149.49768,44.00423C152.22256,44.00423 242.60828,87.36491 244.48489,92.86496C246.3615,98.36501 226.46748,108.74 186.41009,136.51823C169.01018,148.58422 152.7824,158.45646 150.34828,158.45646C146.45235,158.45646 146.11833,156.70493 147.55741,143.82227L147.55742,143.82226z" style="color: rgb(0, 0, 0);" class="selected" transform="rotate(-151.3728790283203 117.87578582763673,88.2734909057617) "/></g></svg>